<svg xmlns="http://www.w3.org/2000/svg" width="10.794" height="10.796" viewBox="0 0 10.794 10.796">
  <g id="_076-email-1" data-name="076-email-1" transform="translate(-0.044 0)">
    <g id="Group_1353" data-name="Group 1353" transform="translate(0.044 0)">
      <g id="Group_1352" data-name="Group 1352" transform="translate(0 0)">
        <path id="Path_393" data-name="Path 393" d="M10.611,3.722a.424.424,0,0,0-.15-.219,1.669,1.669,0,0,0-.278-.272L6.367.28,6.332.256a1.676,1.676,0,0,0-1.781,0L4.515.28.7,3.231A1.7,1.7,0,0,0,.044,4.565V9.109A1.689,1.689,0,0,0,1.731,10.8H6.917a.422.422,0,1,0,0-.843H1.731a.844.844,0,0,1-.843-.843V4.565A.849.849,0,0,1,1.215,3.9L5.012.962a.838.838,0,0,1,.857,0L9.549,3.806,5.872,6.589a.838.838,0,0,1-.862,0L2.51,4.717A.422.422,0,1,0,2,5.392L4.52,7.275l.03.021a1.676,1.676,0,0,0,1.781,0l.032-.022L9.994,4.527q0,.019,0,.038v.876a.422.422,0,1,0,.843,0V4.565A1.692,1.692,0,0,0,10.611,3.722Z" transform="translate(-0.044 0)" fill="#ff710f"/>
      </g>
    </g>
    <g id="Group_1355" data-name="Group 1355" transform="translate(7.212 6.653)">
      <g id="Group_1354" data-name="Group 1354">
        <path id="Path_394" data-name="Path 394" d="M343.487,316.954l-1.245-1.243a.629.629,0,0,0-.888,0l-1.245,1.243a.422.422,0,1,0,.6.6l.672-.671v2.368a.422.422,0,0,0,.843,0V316.88l.672.671a.422.422,0,1,0,.6-.6Z" transform="translate(-339.984 -315.528)" fill="#ff710f"/>
      </g>
    </g>
  </g>
</svg>
