<svg id="_064-pin-1" data-name="064-pin-1" xmlns="http://www.w3.org/2000/svg" width="10.794" height="13.48" viewBox="0 0 10.794 13.48">
  <g id="Group_1348" data-name="Group 1348" transform="translate(2.106 2.106)">
    <g id="Group_1347" data-name="Group 1347">
      <path id="Path_391" data-name="Path 391" d="M134.291,80a3.291,3.291,0,1,0,.9,6.457.527.527,0,1,0-.288-1.013,2.235,2.235,0,1,1,1.53-1.509.527.527,0,0,0,1.009.3A3.293,3.293,0,0,0,134.291,80Z" transform="translate(-131 -80)" fill="#ff710f"/>
    </g>
  </g>
  <g id="Group_1350" data-name="Group 1350" transform="translate(0)">
    <g id="Group_1349" data-name="Group 1349">
      <path id="Path_392" data-name="Path 392" d="M60.214,1.579A5.4,5.4,0,0,0,51,5.392a5.64,5.64,0,0,0,.891,3.01,16.03,16.03,0,0,0,1.9,2.363,17.973,17.973,0,0,1,2,2.47.527.527,0,0,0,.445.245h.316A.527.527,0,0,0,57,13.235a17.973,17.973,0,0,1,2-2.47,16.027,16.027,0,0,0,1.9-2.363A5.64,5.64,0,0,0,61.8,5.391,5.362,5.362,0,0,0,60.214,1.579Zm-1.99,8.476A21.7,21.7,0,0,0,56.4,12.241a21.7,21.7,0,0,0-1.824-2.186c-1.351-1.48-2.518-2.758-2.52-4.662a4.344,4.344,0,0,1,8.688,0C60.742,7.3,59.575,8.575,58.224,10.055Z" transform="translate(-51.003 0)" fill="#ff710f"/>
    </g>
  </g>
</svg>
