<svg xmlns="http://www.w3.org/2000/svg" width="10.79" height="10.79" viewBox="0 0 10.79 10.79">
  <g id="_135-phone-call-1" data-name="135-phone-call-1" transform="translate(0 -0.001)">
    <g id="Group_1357" data-name="Group 1357" transform="translate(0 0.001)">
      <g id="Group_1356" data-name="Group 1356" transform="translate(0 0)">
        <path id="Path_395" data-name="Path 395" d="M248.506,22.1h.025a4.6,4.6,0,0,1,4.606,4.629.506.506,0,0,0,.5.509h0a.506.506,0,0,0,.506-.5,5.609,5.609,0,0,0-5.619-5.646H248.5a.506.506,0,0,0,0,1.013Z" transform="translate(-243.894 -20.556)" fill="#ff710f"/>
        <path id="Path_396" data-name="Path 396" d="M10.789,8.695a1.6,1.6,0,0,0-.49-1.1A3.92,3.92,0,0,0,8.748,6.567a1.737,1.737,0,0,0-1.784.506l0,0-.57.566a8.486,8.486,0,0,1-1.8-1.39L4.539,6.2A8.539,8.539,0,0,1,3.15,4.4l.566-.57,0,0a1.737,1.737,0,0,0,.506-1.784A3.92,3.92,0,0,0,3.193.491,1.6,1.6,0,0,0,.967.411L.955.422.938.438A3.42,3.42,0,0,0,0,2.942a8,8,0,0,0,2.547,5.3l0,0a10.286,10.286,0,0,0,1.007.876.421.421,0,0,0,.513-.669,9.425,9.425,0,0,1-.927-.807l0,0a7.156,7.156,0,0,1-2.3-4.7,2.6,2.6,0,0,1,.683-1.9l0,0a.758.758,0,0,1,1.056.038c1.091,1.132,1.012,1.666.53,2.16l-.781.787a.421.421,0,0,0-.086.468,8.516,8.516,0,0,0,1.695,2.3L4,6.848A8.516,8.516,0,0,0,6.3,8.542a.421.421,0,0,0,.468-.086l.787-.781c.495-.482,1.029-.561,2.16.53a.758.758,0,0,1,.038,1.056l0,0a2.6,2.6,0,0,1-1.878.684H7.853a5.465,5.465,0,0,1-2.08-.492.421.421,0,1,0-.334.774,6.218,6.218,0,0,0,2.409.561h.024a3.412,3.412,0,0,0,2.481-.938l.016-.016.011-.012A1.6,1.6,0,0,0,10.789,8.695Z" transform="translate(0 -0.001)" fill="#ff710f"/>
        <path id="Path_397" data-name="Path 397" d="M294.139,112.711a2.783,2.783,0,0,0-1.315-.757.506.506,0,0,0-.27.976,1.771,1.771,0,0,1,.869.5,1.81,1.81,0,0,1,.492.853l.007.025a.506.506,0,0,0,.971-.287l-.007-.023A2.787,2.787,0,0,0,294.139,112.711Z" transform="translate(-286.356 -109.704)" fill="#ff710f"/>
      </g>
    </g>
  </g>
</svg>
