<svg xmlns="http://www.w3.org/2000/svg" width="14.428" height="14.428" viewBox="0 0 14.428 14.428">
  <g id="Icon_ionic-ios-arrow-dropup" data-name="Icon ionic-ios-arrow-dropup" transform="translate(14.428) rotate(90)">
    <path id="Path_71" data-name="Path 71" d="M.2,4.451A.672.672,0,0,1,.2,3.5L3.514.2A.669.669,0,0,1,4.437.174l3.271,3.26a.668.668,0,1,1-.943.947L3.955,1.614,1.142,4.454A.669.669,0,0,1,.2,4.451Z" transform="translate(3.259 4.334)"/>
    <path id="Path_72" data-name="Path 72" d="M7.214,14.428A7.214,7.214,0,1,0,0,7.214,7.213,7.213,0,0,0,7.214,14.428Zm0-1.11A6.1,6.1,0,0,1,2.9,2.9a6.1,6.1,0,1,1,8.629,8.629A6.052,6.052,0,0,1,7.214,13.318Z" transform="translate(0)"/>
  </g>
</svg>
