<svg xmlns="http://www.w3.org/2000/svg" width="26.2" height="19.701" viewBox="0 0 26.2 19.701">
  <g id="_151-check" data-name="151-check" transform="translate(0 -63.498)">
    <g id="Group_1092" data-name="Group 1092" transform="translate(0 63.498)">
      <path id="Path_344" data-name="Path 344" d="M25.817,63.724a1.023,1.023,0,0,0-1.439.157L10.761,80.829a1.024,1.024,0,0,1-1.449.045l-7.58-7.266A1.023,1.023,0,0,0,.315,75.086L7.9,82.355a3.044,3.044,0,0,0,2.112.845l.127,0a3.046,3.046,0,0,0,2.164-1.02l.035-.042L25.974,65.163A1.023,1.023,0,0,0,25.817,63.724Z" transform="translate(0 -63.498)" fill="#58d68d"/>
    </g>
  </g>
</svg>
