<svg id="_167-wall-clock" data-name="167-wall-clock" xmlns="http://www.w3.org/2000/svg" width="28.756" height="28.756" viewBox="0 0 28.756 28.756">
  <g id="Group_1104" data-name="Group 1104">
    <g id="Group_1103" data-name="Group 1103">
      <path id="Path_352" data-name="Path 352" d="M24.545,4.211A14.378,14.378,0,0,0,4.211,24.545a14.383,14.383,0,0,0,17.606,2.139,1.123,1.123,0,1,0-1.164-1.922,12.239,12.239,0,1,1,3.8-3.651A1.123,1.123,0,1,0,26.32,22.36,14.343,14.343,0,0,0,24.545,4.211Z"/>
    </g>
  </g>
  <g id="Group_1106" data-name="Group 1106" transform="translate(8.807 4.268)">
    <g id="Group_1105" data-name="Group 1105">
      <path id="Path_353" data-name="Path 353" d="M162.375,76a1.123,1.123,0,0,0-1.123,1.123v8.521l-4.119,4.119a1.123,1.123,0,1,0,1.589,1.589l4.448-4.448a1.123,1.123,0,0,0,.329-.794V77.123A1.123,1.123,0,0,0,162.375,76Z" transform="translate(-156.804 -76)"/>
    </g>
  </g>
</svg>
