<svg xmlns="http://www.w3.org/2000/svg" width="20.613" height="16.386" viewBox="0 0 20.613 16.386">
  <g id="_096-dashboard" data-name="096-dashboard" transform="translate(0 -52.499)">
    <g id="Group_1234" data-name="Group 1234" transform="translate(0 52.499)">
      <g id="Group_1233" data-name="Group 1233" transform="translate(0 0)">
        <path id="Path_378" data-name="Path 378" d="M205.655,123.734a.805.805,0,0,0-1.023-.1c-1.2.821-7.248,4.951-7.9,5.6a2.416,2.416,0,0,0,3.416,3.416c.649-.649,4.779-6.693,5.6-7.9A.805.805,0,0,0,205.655,123.734Zm-6.643,7.782a.805.805,0,0,1-1.139-1.139c.252-.249,1.968-1.473,4.079-2.94C200.485,129.548,199.262,131.263,199.012,131.516Z" transform="translate(-188.136 -120.64)"/>
        <path id="Path_379" data-name="Path 379" d="M3.713,66.551l-.994.485a8.656,8.656,0,0,1-.543-7.317l1.139.546a.805.805,0,1,0,.7-1.452l-1.125-.539A8.707,8.707,0,0,1,9.5,54.146v1.211a.805.805,0,1,0,1.61,0V54.146a8.6,8.6,0,0,1,2.769.729.805.805,0,1,0,.663-1.468,10.3,10.3,0,0,0-12.8,15.12.805.805,0,0,0,1.022.276L4.419,68a.805.805,0,1,0-.706-1.447Z" transform="translate(0 -52.499)"/>
        <path id="Path_380" data-name="Path 380" d="M394,191.968a.805.805,0,1,0-1.468.663,8.668,8.668,0,0,1-.346,7.81l-1.038-.494a.805.805,0,1,0-.692,1.454l1.691.805a.805.805,0,0,0,1.016-.279,10.282,10.282,0,0,0,.838-9.958Z" transform="translate(-374.293 -185.898)"/>
      </g>
    </g>
  </g>
</svg>
