<svg id="XMLID_1156_" xmlns="http://www.w3.org/2000/svg" width="31.157" height="31.157" viewBox="0 0 31.157 31.157">
  <g id="XMLID_416_" transform="translate(0 0)">
    <path id="XMLID_419_" d="M29.7,21.623V4.29A1.858,1.858,0,0,0,27.84,2.434H23.428V1.826a1.826,1.826,0,1,0-3.651,0v.609H9.919V1.826a1.826,1.826,0,0,0-3.651,0v.609H1.856A1.858,1.858,0,0,0,0,4.29V26.866a1.858,1.858,0,0,0,1.856,1.856H10.15a.609.609,0,1,0,0-1.217H1.856a.64.64,0,0,1-.639-.639V4.29a.64.64,0,0,1,.639-.639H6.268V4.26a1.826,1.826,0,0,0,3.651,0V3.651h9.858V4.26a1.826,1.826,0,1,0,3.651,0V3.651H27.84a.64.64,0,0,1,.639.639V7.3h-23a.609.609,0,1,0,0,1.217h23V20.595a5.689,5.689,0,0,0-1.7-.72V10.832a.609.609,0,0,0-.609-.609H3.529a.609.609,0,0,0-.609.609V25.193a.609.609,0,0,0,.609.609h16.2a5.677,5.677,0,0,0,.375,1.7H15.018a.609.609,0,1,0,0,1.217h5.739a5.718,5.718,0,1,0,8.939-7.1ZM8.7,4.26a.609.609,0,0,1-1.217,0V1.826a.609.609,0,1,1,1.217,0Zm13.509,0a.609.609,0,0,1-1.217,0V1.826a.609.609,0,0,1,1.217,0Zm3.225,15.457a5.743,5.743,0,0,0-.833.061H22.248V16.248h3.31v3.47ZM19.78,24.584H17.72v-3.59h3.31v.8A5.7,5.7,0,0,0,19.78,24.584ZM4.138,16.248h3.31v3.529H4.138Zm4.527,0h3.31v3.529H8.665Zm9.055,0h3.31v3.529H17.72ZM16.5,19.777h-3.31V16.248H16.5Zm1.217-4.747V11.44h3.31v3.59Zm-1.217,0h-3.31V11.44H16.5Zm-4.527,0H8.665V11.44h3.31Zm0,5.964v3.59H8.665v-3.59Zm1.217,0H16.5v3.59h-3.31v-3.59Zm12.365-5.964h-3.31V11.44h3.31ZM7.448,11.44v3.59H4.138V11.44Zm-3.31,9.554h3.31v3.59H4.138Zm21.3,8.945a4.5,4.5,0,1,1,4.5-4.5A4.508,4.508,0,0,1,25.436,29.94Z"/>
    <path id="XMLID_1115_" d="M388.924,391.011l-1.882,1.882-.837-.838a.609.609,0,0,0-.861.861l1.268,1.268a.609.609,0,0,0,.861,0l2.312-2.312a.609.609,0,0,0-.861-.861Z" transform="translate(-361.728 -367.05)"/>
    <path id="XMLID_1116_" d="M197.409,452a.609.609,0,1,0,.43.178A.613.613,0,0,0,197.409,452Z" transform="translate(-184.824 -424.495)"/>
    <path id="XMLID_1120_" d="M41.039,121.039a.608.608,0,1,0-.43.178A.613.613,0,0,0,41.039,121.039Z" transform="translate(-37.566 -112.698)"/>
  </g>
</svg>
