<svg id="icon_email_mail" data-name="icon / email / mail" xmlns="http://www.w3.org/2000/svg" xmlns:xlink="http://www.w3.org/1999/xlink" width="20.873" height="17.22" viewBox="0 0 20.873 17.22">
  <defs>
    <clipPath id="clip-path">
      <path id="icon_mail" data-name="icon / mail" d="M18.027,17.22H2.846A2.827,2.827,0,0,1,.818,16.4,2.876,2.876,0,0,1,0,14.35V2.87A2.876,2.876,0,0,1,.818.825,2.827,2.827,0,0,1,2.846,0H18.027a2.827,2.827,0,0,1,2.028.825,2.876,2.876,0,0,1,.818,2.045V14.35a2.876,2.876,0,0,1-.818,2.045A2.827,2.827,0,0,1,18.027,17.22ZM1.9,4.687V14.35a.9.9,0,0,0,.949.957H18.027a.9.9,0,0,0,.949-.957V4.687l-7.969,5.645a1.347,1.347,0,0,1-.57.191,1.347,1.347,0,0,1-.569-.191Zm.949-2.774a.916.916,0,0,0-.854.574l8.444,5.931,8.444-5.931a.915.915,0,0,0-.854-.574Z" fill="#fff"/>
    </clipPath>
  </defs>
  <g id="Group_218" data-name="Group 218" transform="translate(0 0)">
    <path id="icon_mail-2" data-name="icon / mail" d="M18.027,17.22H2.846A2.827,2.827,0,0,1,.818,16.4,2.876,2.876,0,0,1,0,14.35V2.87A2.876,2.876,0,0,1,.818.825,2.827,2.827,0,0,1,2.846,0H18.027a2.827,2.827,0,0,1,2.028.825,2.876,2.876,0,0,1,.818,2.045V14.35a2.876,2.876,0,0,1-.818,2.045A2.827,2.827,0,0,1,18.027,17.22ZM1.9,4.687V14.35a.9.9,0,0,0,.949.957H18.027a.9.9,0,0,0,.949-.957V4.687l-7.969,5.645a1.347,1.347,0,0,1-.57.191,1.347,1.347,0,0,1-.569-.191Zm.949-2.774a.916.916,0,0,0-.854.574l8.444,5.931,8.444-5.931a.915.915,0,0,0-.854-.574Z" transform="translate(0 0)" fill="#fff"/>
  </g>
</svg>
