<svg id="Group_218" data-name="Group 218" xmlns="http://www.w3.org/2000/svg" xmlns:xlink="http://www.w3.org/1999/xlink" width="37.167" height="30.663" viewBox="0 0 37.167 30.663">
  <defs>
    <clipPath id="clip-path">
      <path id="icon_mail" data-name="icon / mail" d="M32.1,30.663H5.068a5.035,5.035,0,0,1-3.611-1.469A5.12,5.12,0,0,1,0,25.553V5.11A5.12,5.12,0,0,1,1.457,1.469,5.035,5.035,0,0,1,5.068,0H32.1A5.035,5.035,0,0,1,35.71,1.469,5.12,5.12,0,0,1,37.167,5.11V25.553a5.12,5.12,0,0,1-1.457,3.641A5.035,5.035,0,0,1,32.1,30.663ZM3.379,8.346V25.553a1.606,1.606,0,0,0,1.689,1.7H32.1a1.606,1.606,0,0,0,1.689-1.7V8.346L19.6,18.4a2.4,2.4,0,0,1-1.014.34,2.4,2.4,0,0,1-1.013-.34Zm1.689-4.94A1.631,1.631,0,0,0,3.547,4.429L18.584,14.991,33.62,4.429A1.629,1.629,0,0,0,32.1,3.407Z" fill="#e8551e"/>
    </clipPath>
  </defs>
  <path id="icon_mail-2" data-name="icon / mail" d="M32.1,30.663H5.068a5.035,5.035,0,0,1-3.611-1.469A5.12,5.12,0,0,1,0,25.553V5.11A5.12,5.12,0,0,1,1.457,1.469,5.035,5.035,0,0,1,5.068,0H32.1A5.035,5.035,0,0,1,35.71,1.469,5.12,5.12,0,0,1,37.167,5.11V25.553a5.12,5.12,0,0,1-1.457,3.641A5.035,5.035,0,0,1,32.1,30.663ZM3.379,8.346V25.553a1.606,1.606,0,0,0,1.689,1.7H32.1a1.606,1.606,0,0,0,1.689-1.7V8.346L19.6,18.4a2.4,2.4,0,0,1-1.014.34,2.4,2.4,0,0,1-1.013-.34Zm1.689-4.94A1.631,1.631,0,0,0,3.547,4.429L18.584,14.991,33.62,4.429A1.629,1.629,0,0,0,32.1,3.407Z" transform="translate(0 0)" fill="#e8551e"/>
</svg>
