<svg xmlns="http://www.w3.org/2000/svg" width="19.864" height="17" viewBox="0 0 19.864 17">
  <g id="car-engine" transform="translate(0.001 -36.907)">
    <path id="Path_375" data-name="Path 375" d="M19.44,40.809l-3.478-3.478a1.428,1.428,0,0,0-1.868-.14l-1.879,1.385a.291.291,0,0,0-.033.44l.453.453-1.989,1.989H9.217L7.227,39.468l.453-.453a.291.291,0,0,0-.033-.44L5.768,37.19a1.427,1.427,0,0,0-1.868.14l-.551.551a.291.291,0,0,0,.411.411l.551-.551a.849.849,0,0,1,1.111-.084l.625.461L1.211,42.957.75,42.332A.85.85,0,0,1,.834,41.22l2.1-2.1a.291.291,0,0,0-.411-.411l-2.1,2.1a1.429,1.429,0,0,0-.141,1.868l1.385,1.879a.291.291,0,0,0,.212.117H1.9a.291.291,0,0,0,.206-.085l.453-.453.338.338A3.246,3.246,0,0,0,4.39,50.122,2.489,2.489,0,0,0,5.992,52v1.045a.866.866,0,0,0,1.683.291h.416a.866.866,0,0,0,1.632,0h.417a.866.866,0,0,0,1.632,0h.417a.866.866,0,0,0,1.682-.291V50.754a2.111,2.111,0,0,0,1.182-.578,3.231,3.231,0,0,0,1.623-.558.291.291,0,0,0-.328-.48,2.652,2.652,0,0,1-.833.378,2.1,2.1,0,0,0,.174-.676,2.082,2.082,0,0,0,.45-3.54l.414-.414a2.661,2.661,0,0,1,.527,3.506.291.291,0,1,0,.486.319,3.242,3.242,0,0,0-.6-4.238l.338-.338.453.453a.291.291,0,0,0,.206.085h.022a.291.291,0,0,0,.212-.117l1.385-1.879a1.428,1.428,0,0,0-.14-1.868ZM14.75,43.5a.272.272,0,0,1,.08-.193l.82-.82.387.387-.82.82a.273.273,0,0,1-.467-.193Zm-.72-2.633.258.258-.82.82a.273.273,0,0,1-.387-.387l.82-.82Zm-.983-.983.444.444-.82.82a.855.855,0,1,0,1.209,1.209l.82-.82.539.539-.82.82A.855.855,0,0,0,15.628,44.1l.82-.82.444.444-1.869,1.869-3.845-3.845Zm-1.224,10.9h.316V52.75h-.316Zm-2-.582,1.64-1.61c0,.025,0,.05,0,.075a2.11,2.11,0,0,0,.662,1.535Zm-2.1,1.779a2.468,2.468,0,0,0,.316-.149v.927H7.725Zm2.049-1.2h.316V52.75H9.773ZM9.3,49.9c.007-.078.012-.157.012-.236A2.483,2.483,0,0,0,6.827,47.18c-.054,0-.107,0-.159.006L8.29,45.6a1.646,1.646,0,0,0,3.288-.118c0-.039,0-.077,0-.115l1.669,1.2a2.113,2.113,0,0,0-1.157.593v0ZM4.14,45.715l.445.445.545,1.693a2.5,2.5,0,0,0-.439.547,1.514,1.514,0,0,1-1.179-1.466A1.5,1.5,0,0,1,4.14,45.715Zm5.792-1.3a1.065,1.065,0,1,1-1.065,1.065A1.066,1.066,0,0,1,9.931,44.417Zm4.546,2.324S10.96,44.2,10.919,44.166a1.643,1.643,0,0,0-2.1.1L5.6,47.416l-.429-1.331,4.045-4.045h1.429l4.045,4.045-.212.658h0ZM4.213,42.483l.82.82a.273.273,0,1,1-.387.387l-.82-.82ZM1.935,43.938,1.56,43.43l4.961-4.961.508.374Zm1.48-.657.82.82a.855.855,0,1,0,1.209-1.209l-.82-.82.007-.007.532-.532.82.82a.855.855,0,1,0,1.209-1.209l-.82-.82.444-.444,1.869,1.869L4.84,45.593,2.971,43.724Zm2.546-2.546.82.82a.273.273,0,0,1-.387.387l-.82-.82Zm-3.613,6.2a2.668,2.668,0,0,1,.962-2.049l.414.414a2.083,2.083,0,0,0,.729,3.641,2.465,2.465,0,0,0-.1.576,2.67,2.67,0,0,1-2-2.582Zm2.58,2.726a1.9,1.9,0,1,1,1.9,1.9A1.9,1.9,0,0,1,4.928,49.661Zm1.93,3.665a.285.285,0,0,1-.284-.285v-.913a2.451,2.451,0,0,0,.569-.008v.921A.285.285,0,0,1,6.858,53.326Zm2.049,0a.285.285,0,0,1-.284-.285V51.374l.569-.559v2.226a.285.285,0,0,1-.285.285Zm2.049,0a.285.285,0,0,1-.285-.285V50.775h.569v2.266A.285.285,0,0,1,10.956,53.326Zm2.049,0a.285.285,0,0,1-.285-.285V50.775h.569v2.266A.285.285,0,0,1,13,53.326Zm.576-3.133a1.535,1.535,0,1,1,1.535-1.535A1.537,1.537,0,0,1,13.58,50.193Zm2.77-3.258a1.5,1.5,0,0,1-.7,1.271,2.117,2.117,0,0,0-.664-1.13l.294-.914.445-.445a1.5,1.5,0,0,1,.627,1.219Zm1.578-3-5.095-5.095.508-.375L18.3,43.43Zm1.185-1.607-.461.625L13.814,38.12l.625-.461a.849.849,0,0,1,1.111.084l3.478,3.478a.849.849,0,0,1,.084,1.111Z" transform="translate(0)"/>
    <path id="Path_376" data-name="Path 376" d="M155.111,343.869a.878.878,0,1,0-.878.878A.879.879,0,0,0,155.111,343.869Zm-1.174,0a.3.3,0,1,1,.3.3A.3.3,0,0,1,153.937,343.869Z" transform="translate(-147.406 -294.208)"/>
    <path id="Path_377" data-name="Path 377" d="M328.286,317.143a.878.878,0,1,0,.878.878A.879.879,0,0,0,328.286,317.143Zm0,1.174a.3.3,0,1,1,.3-.3A.3.3,0,0,1,328.286,318.317Z" transform="translate(-314.706 -269.363)"/>
  </g>
</svg>
