<svg id="icon_social_facebook" data-name="icon / social / facebook" xmlns="http://www.w3.org/2000/svg" xmlns:xlink="http://www.w3.org/1999/xlink" width="10.842" height="19.134" viewBox="0 0 10.842 19.134">
  <defs>
    <clipPath id="clip-path">
      <path id="icon_facebook" data-name="icon / facebook" d="M6.652,19.134H3.326a.806.806,0,0,1-.832-.87V12.177H.832A.806.806,0,0,1,0,11.306V7.828a.806.806,0,0,1,.832-.87H2.494V5.219A5.114,5.114,0,0,1,7.483,0H9.978a.806.806,0,0,1,.832.87V4.349a.806.806,0,0,1-.832.87H7.483V6.958H9.978a.677.677,0,0,1,.665.261A.9.9,0,0,1,10.809,8l-.832,3.479a.822.822,0,0,1-.832.7H7.483v6.088A.806.806,0,0,1,6.652,19.134ZM1.663,8.7h0v1.739H3.326a.806.806,0,0,1,.832.87v6.088H5.82V11.306a.806.806,0,0,1,.832-.87H8.481L8.9,8.7H6.652a.806.806,0,0,1-.832-.87V5.219a1.7,1.7,0,0,1,1.663-1.74H9.146V1.739H7.483A3.409,3.409,0,0,0,4.158,5.219V7.828a.806.806,0,0,1-.832.87H1.663Z" transform="translate(0)" fill="#fff"/>
    </clipPath>
  </defs>
  <g id="Group_128" data-name="Group 128" transform="translate(0 0)">
    <path id="icon_facebook-2" data-name="icon / facebook" d="M6.652,19.134H3.326a.806.806,0,0,1-.832-.87V12.177H.832A.806.806,0,0,1,0,11.306V7.828a.806.806,0,0,1,.832-.87H2.494V5.219A5.114,5.114,0,0,1,7.483,0H9.978a.806.806,0,0,1,.832.87V4.349a.806.806,0,0,1-.832.87H7.483V6.958H9.978a.677.677,0,0,1,.665.261A.9.9,0,0,1,10.809,8l-.832,3.479a.822.822,0,0,1-.832.7H7.483v6.088A.806.806,0,0,1,6.652,19.134ZM1.663,8.7h0v1.739H3.326a.806.806,0,0,1,.832.87v6.088H5.82V11.306a.806.806,0,0,1,.832-.87H8.481L8.9,8.7H6.652a.806.806,0,0,1-.832-.87V5.219a1.7,1.7,0,0,1,1.663-1.74H9.146V1.739H7.483A3.409,3.409,0,0,0,4.158,5.219V7.828a.806.806,0,0,1-.832.87H1.663Z" transform="translate(0)" fill="#fff"/>
  </g>
</svg>
