<svg xmlns="http://www.w3.org/2000/svg" width="20.461" height="20.46" viewBox="0 0 20.461 20.46">
  <g id="Group_584" data-name="Group 584" transform="translate(0 0)">
    <g id="Group_583" data-name="Group 583" transform="translate(0 0)">
      <path id="Path_60" data-name="Path 60" d="M20.925,16.8,16.783,14.04a1.209,1.209,0,0,0-1.619.263l-1.206,1.551a.516.516,0,0,1-.661.139l-.229-.127a13.868,13.868,0,0,1-3.614-2.839A13.924,13.924,0,0,1,6.614,9.414l-.126-.229a.516.516,0,0,1,.136-.664l1.55-1.206A1.209,1.209,0,0,0,8.438,5.7L5.676,1.555A1.2,1.2,0,0,0,4.055,1.19L2.324,2.23A2.443,2.443,0,0,0,1.21,3.676C.586,5.948,1.055,9.87,6.832,15.647c4.6,4.595,8.016,5.831,10.368,5.831a6.041,6.041,0,0,0,1.6-.209,2.441,2.441,0,0,0,1.446-1.114l1.041-1.731A1.2,1.2,0,0,0,20.925,16.8ZM20.7,18.074l-1.039,1.732a1.762,1.762,0,0,1-1.04.806c-2.1.576-5.762.1-11.308-5.447S1.292,5.954,1.867,3.856a1.765,1.765,0,0,1,.807-1.041L4.406,1.776a.522.522,0,0,1,.7.158l1.5,2.252L7.869,6.075a.525.525,0,0,1-.114.7L6.2,7.984a1.193,1.193,0,0,0-.316,1.532l.123.224A14.465,14.465,0,0,0,8.968,13.51a14.48,14.48,0,0,0,3.771,2.955l.224.123a1.193,1.193,0,0,0,1.532-.316l1.206-1.55a.525.525,0,0,1,.7-.114l4.141,2.762A.521.521,0,0,1,20.7,18.074Z" transform="translate(-1 -1.018)"/>
      <path id="Path_61" data-name="Path 61" d="M282.969,70.006a5.8,5.8,0,0,1,5.8,5.8.341.341,0,0,0,.682,0,6.486,6.486,0,0,0-6.478-6.478.341.341,0,1,0,0,.682Z" transform="translate(-271.375 -66.595)"/>
      <path id="Path_62" data-name="Path 62" d="M282.969,121.206a3.755,3.755,0,0,1,3.751,3.751.341.341,0,0,0,.682,0,4.438,4.438,0,0,0-4.433-4.433.341.341,0,1,0,0,.682Z" transform="translate(-271.375 -115.749)"/>
      <path id="Path_63" data-name="Path 63" d="M282.969,172.406a1.707,1.707,0,0,1,1.7,1.7.341.341,0,1,0,.682,0,2.389,2.389,0,0,0-2.387-2.387.341.341,0,1,0,0,.682Z" transform="translate(-271.375 -164.903)"/>
    </g>
  </g>
</svg>
