<svg id="icon_social_instagram" data-name="icon / social / instagram" xmlns="http://www.w3.org/2000/svg" xmlns:xlink="http://www.w3.org/1999/xlink" width="19.134" height="19.134" viewBox="0 0 19.134 19.134">
  <defs>
    <clipPath id="clip-path">
      <path id="icon_instagram" data-name="icon / instagram" d="M13.916,19.134h-8.7A5.224,5.224,0,0,1,0,13.916v-8.7A5.225,5.225,0,0,1,5.219,0h8.7a5.224,5.224,0,0,1,5.218,5.219v8.7A5.224,5.224,0,0,1,13.916,19.134ZM5.219,1.739A3.483,3.483,0,0,0,1.739,5.219v8.7a3.483,3.483,0,0,0,3.479,3.479h8.7a3.483,3.483,0,0,0,3.479-3.479v-8.7a3.483,3.483,0,0,0-3.479-3.479ZM9.567,13.916a4.242,4.242,0,0,1-2.783-1.055,4.506,4.506,0,0,1-1.478-2.685A4.348,4.348,0,0,1,6.12,6.947,4.287,4.287,0,0,1,8.958,5.219a3.3,3.3,0,0,1,1.3,0,4.08,4.08,0,0,1,3.566,3.652,4.264,4.264,0,0,1-.783,3.218,4.337,4.337,0,0,1-2.87,1.74A1.483,1.483,0,0,1,9.567,13.916ZM9.219,6.958A2.538,2.538,0,0,0,7.5,7.993a2.5,2.5,0,0,0-.458,1.922,2.625,2.625,0,0,0,2.628,2.194A2.656,2.656,0,0,0,10,12.089a2.777,2.777,0,0,0,1.739-1.043,2.408,2.408,0,0,0,.348-1.913A2.589,2.589,0,0,0,9.915,6.958h-.7Zm5.131-1.3a.892.892,0,0,1-.87-.87.525.525,0,0,1,.087-.348c0-.088.093-.18.175-.261a.841.841,0,0,1,1.217,0c.085.085.174.174.174.261a.312.312,0,0,0,.032.114.571.571,0,0,1,.055.233.788.788,0,0,1-.261.609A.936.936,0,0,1,14.35,5.653Z" fill="#fff"/>
    </clipPath>
  </defs>
  <g id="Group_109" data-name="Group 109" transform="translate(0 0)">
    <path id="icon_instagram-2" data-name="icon / instagram" d="M13.916,19.134h-8.7A5.224,5.224,0,0,1,0,13.916v-8.7A5.225,5.225,0,0,1,5.219,0h8.7a5.224,5.224,0,0,1,5.218,5.219v8.7A5.224,5.224,0,0,1,13.916,19.134ZM5.219,1.739A3.483,3.483,0,0,0,1.739,5.219v8.7a3.483,3.483,0,0,0,3.479,3.479h8.7a3.483,3.483,0,0,0,3.479-3.479v-8.7a3.483,3.483,0,0,0-3.479-3.479ZM9.567,13.916a4.242,4.242,0,0,1-2.783-1.055,4.506,4.506,0,0,1-1.478-2.685A4.348,4.348,0,0,1,6.12,6.947,4.287,4.287,0,0,1,8.958,5.219a3.3,3.3,0,0,1,1.3,0,4.08,4.08,0,0,1,3.566,3.652,4.264,4.264,0,0,1-.783,3.218,4.337,4.337,0,0,1-2.87,1.74A1.483,1.483,0,0,1,9.567,13.916ZM9.219,6.958A2.538,2.538,0,0,0,7.5,7.993a2.5,2.5,0,0,0-.458,1.922,2.625,2.625,0,0,0,2.628,2.194A2.656,2.656,0,0,0,10,12.089a2.777,2.777,0,0,0,1.739-1.043,2.408,2.408,0,0,0,.348-1.913A2.589,2.589,0,0,0,9.915,6.958h-.7Zm5.131-1.3a.892.892,0,0,1-.87-.87.525.525,0,0,1,.087-.348c0-.088.093-.18.175-.261a.841.841,0,0,1,1.217,0c.085.085.174.174.174.261a.312.312,0,0,0,.032.114.571.571,0,0,1,.055.233.788.788,0,0,1-.261.609A.936.936,0,0,1,14.35,5.653Z" fill="#fff"/>
  </g>
</svg>
