<svg xmlns="http://www.w3.org/2000/svg" width="13.457" height="21.517" viewBox="0 0 13.457 21.517">
  <g id="location_1_" data-name="location (1)" transform="translate(-95.898)" opacity="0.4">
    <path id="Path_68" data-name="Path 68" d="M175.6,84.467a3.527,3.527,0,1,0-3.527-3.527A3.531,3.531,0,0,0,175.6,84.467Zm0-5.793a2.266,2.266,0,1,1-2.266,2.266A2.269,2.269,0,0,1,175.6,78.674Z" transform="translate(-72.969 -74.16)"/>
    <path id="Path_69" data-name="Path 69" d="M98.786,13.117c.955,1.293.572.79,3.324,4.72a.631.631,0,0,0,1.034,0c2.764-3.948,2.384-3.448,3.324-4.72a16.04,16.04,0,0,0,2.476-4.184,6.512,6.512,0,0,0-.95-6.3h0a6.783,6.783,0,0,0-10.733,0,6.512,6.512,0,0,0-.95,6.3A16.037,16.037,0,0,0,98.786,13.117Zm-.529-9.712a5.522,5.522,0,0,1,8.739,0h0a5.288,5.288,0,0,1,.756,5.116,15.1,15.1,0,0,1-2.3,3.846c-.7.944-.489.655-2.826,4.006-2.335-3.348-2.129-3.062-2.826-4.006a15.105,15.105,0,0,1-2.3-3.846,5.288,5.288,0,0,1,.756-5.116Z"/>
    <path id="Path_70" data-name="Path 70" d="M109.564,370.47a.63.63,0,0,0-.87-.2l-1.792,1.132a.631.631,0,0,0,0,1.066l5.648,3.567a.631.631,0,0,0,.673,0l5.648-3.567a.631.631,0,0,0,0-1.066l-1.792-1.132a.63.63,0,1,0-.673,1.066l.949.6-4.468,2.822-4.468-2.822.949-.6A.63.63,0,0,0,109.564,370.47Z" transform="translate(-10.26 -354.62)"/>
  </g>
</svg>
