<svg xmlns="http://www.w3.org/2000/svg" width="36" height="42.865" viewBox="0 0 36 42.865">
  <g id="_097-pin" data-name="097-pin" transform="translate(-41)">
    <g id="Group_1102" data-name="Group 1102" transform="translate(41)">
      <g id="Group_1101" data-name="Group 1101">
        <path id="Path_349" data-name="Path 349" d="M170.931,94.668a1.674,1.674,0,0,0-.448-3.319,4.6,4.6,0,0,1-.613.041,4.521,4.521,0,1,1,4.521-4.521,4.585,4.585,0,0,1-.059.735,1.674,1.674,0,0,0,3.305.539,7.863,7.863,0,1,0-6.706,6.525Z" transform="translate(-151.87 -72.386)"/>
        <path id="Path_350" data-name="Path 350" d="M74.3,377.722a20.3,20.3,0,0,0-5.256-1.692,1.674,1.674,0,0,0-.667,3.282c3.393.689,4.784,1.517,5.185,1.918-.3.3-1.284,1.04-4.188,1.739A46.219,46.219,0,0,1,59,384.034a46.219,46.219,0,0,1-10.375-1.065c-2.9-.7-3.892-1.443-4.188-1.739.4-.4,1.792-1.229,5.185-1.918a1.674,1.674,0,0,0-.667-3.282,20.3,20.3,0,0,0-5.256,1.692c-1.791.939-2.7,2.121-2.7,3.511,0,2.077,2.023,3.685,6.013,4.779A47.336,47.336,0,0,0,59,387.383a47.336,47.336,0,0,0,11.987-1.37c3.99-1.094,6.013-2.7,6.013-4.779C77,379.843,76.092,378.661,74.3,377.722Z" transform="translate(-41 -344.518)"/>
        <path id="Path_351" data-name="Path 351" d="M96.068,35.387a1.674,1.674,0,0,0,2.831,0,45.5,45.5,0,0,1,5.466-6.619c3.776-4.025,7.68-8.188,7.686-14.37a14.241,14.241,0,0,0-4.288-10.217,14.674,14.674,0,0,0-20.522.005A14.3,14.3,0,0,0,83,14.4c.006,6.189,3.891,10.359,7.649,14.391A46.008,46.008,0,0,1,96.068,35.387ZM97.484,3.349A11.158,11.158,0,0,1,108.7,14.4c0,4.856-3.144,8.2-6.78,12.079a63.72,63.72,0,0,0-4.438,5.084A64.45,64.45,0,0,0,93.1,26.51c-3.619-3.885-6.745-7.239-6.75-12.108A10.985,10.985,0,0,1,97.484,3.349Z" transform="translate(-79.484)"/>
      </g>
    </g>
  </g>
</svg>
