<svg xmlns="http://www.w3.org/2000/svg" width="12.2" height="16.013" viewBox="0 0 12.2 16.013">
  <path id="Icon_material-lock-outline" data-name="Icon material-lock-outline" d="M6.1,12.2a1.529,1.529,0,1,0-1.077-.448A1.525,1.525,0,0,0,6.1,12.2Zm4.575-6.862H9.913V3.812a3.813,3.813,0,0,0-7.625,0V5.337H1.525A1.529,1.529,0,0,0,0,6.863v7.625a1.529,1.529,0,0,0,1.525,1.525h9.15A1.529,1.529,0,0,0,12.2,14.488V6.863a1.529,1.529,0,0,0-1.525-1.525ZM3.736,3.812a2.364,2.364,0,1,1,4.727,0V5.337H3.736Zm6.939,10.675H1.525V6.863h9.15Z" fill="#393f45" opacity="0.5"/>
</svg>
