<svg xmlns="http://www.w3.org/2000/svg" width="24.551" height="20.46" viewBox="0 0 24.551 20.46">
  <g id="name_1_" data-name="name (1)" opacity="0.4">
    <path id="Path_53" data-name="Path 53" d="M21.738,61.082H2.813A2.816,2.816,0,0,1,0,58.268V45.481a2.815,2.815,0,0,1,2.813-2.813H8.951a.767.767,0,0,1,0,1.534H2.813a1.28,1.28,0,0,0-1.279,1.279V58.268a1.281,1.281,0,0,0,1.279,1.279H21.738a1.281,1.281,0,0,0,1.279-1.279V45.481A1.28,1.28,0,0,0,21.738,44.2H15.6a.767.767,0,0,1,0-1.534h6.138a2.815,2.815,0,0,1,2.813,2.813V58.268A2.816,2.816,0,0,1,21.738,61.082Zm0,0" transform="translate(0 -40.622)"/>
    <path id="Path_54" data-name="Path 54" d="M177.062,5.626h-4.6a1.792,1.792,0,0,1-1.79-1.79V1.79A1.792,1.792,0,0,1,172.458,0h4.6a1.792,1.792,0,0,1,1.79,1.79V3.836A1.792,1.792,0,0,1,177.062,5.626Zm-4.6-4.092a.256.256,0,0,0-.256.256V3.836a.256.256,0,0,0,.256.256h4.6a.256.256,0,0,0,.256-.256V1.79a.256.256,0,0,0-.256-.256Zm0,0" transform="translate(-162.484)"/>
    <path id="Path_55" data-name="Path 55" d="M109.225,154.447a2.557,2.557,0,1,1,2.557-2.557A2.561,2.561,0,0,1,109.225,154.447Zm0-3.58a1.023,1.023,0,1,0,1.023,1.023A1.025,1.025,0,0,0,109.225,150.867Zm0,0" transform="translate(-101.553 -142.171)"/>
    <path id="Path_56" data-name="Path 56" d="M72.439,281.424a.768.768,0,0,1-.767-.767v-.512a1.281,1.281,0,0,0-1.279-1.279h-3.58a1.281,1.281,0,0,0-1.279,1.279v.512a.767.767,0,1,1-1.534,0v-.512a2.816,2.816,0,0,1,2.813-2.813h3.58a2.816,2.816,0,0,1,2.813,2.813v.512A.768.768,0,0,1,72.439,281.424Zm0,0" transform="translate(-60.931 -264.033)"/>
    <path id="Path_57" data-name="Path 57" d="M305.062,161.534h-5.626a.767.767,0,0,1,0-1.534h5.626a.767.767,0,1,1,0,1.534Zm0,0" transform="translate(-284.346 -152.328)"/>
    <path id="Path_58" data-name="Path 58" d="M305.062,246.866h-5.626a.767.767,0,0,1,0-1.534h5.626a.767.767,0,1,1,0,1.534Zm0,0" transform="translate(-284.346 -233.568)"/>
    <path id="Path_59" data-name="Path 59" d="M305.062,332.2h-5.626a.767.767,0,0,1,0-1.534h5.626a.767.767,0,1,1,0,1.534Zm0,0" transform="translate(-284.346 -314.812)"/>
  </g>
</svg>
