<svg xmlns="http://www.w3.org/2000/svg" width="13.883" height="18.222" viewBox="0 0 13.883 18.222">
  <path id="Icon_material-lock-outline" data-name="Icon material-lock-outline" d="M6.942,13.884a1.74,1.74,0,1,0-1.226-.51A1.735,1.735,0,0,0,6.942,13.884Zm5.206-7.809h-.867V4.339a4.339,4.339,0,0,0-8.677,0V6.074H1.735A1.74,1.74,0,0,0,0,7.809v8.677a1.74,1.74,0,0,0,1.735,1.735H12.148a1.74,1.74,0,0,0,1.735-1.735V7.809a1.74,1.74,0,0,0-1.735-1.735Zm-7.9-1.737a2.69,2.69,0,1,1,5.379,0V6.074H4.251Zm7.9,12.148H1.735V7.809H12.148Z" fill="#393f45" opacity="0.5"/>
</svg>
