<svg id="icon_phone_phone-call" data-name="icon / phone / phone-call" xmlns="http://www.w3.org/2000/svg" xmlns:xlink="http://www.w3.org/1999/xlink" width="37.167" height="37.167" viewBox="0 0 37.167 37.167">
  <defs>
    <clipPath id="clip-path">
      <path id="icon_phone-call" data-name="icon / phone-call" d="M30.655,37.167h-.486A32.614,32.614,0,0,1,15.408,32,33.887,33.887,0,0,1,5.19,21.815,34.186,34.186,0,0,1,0,7.11,5.536,5.536,0,0,1,1.136,3.555,5.025,5.025,0,0,1,4.379,1.777H9.731a4.9,4.9,0,0,1,4.866,4.2,17.662,17.662,0,0,0,.974,4.2,5.065,5.065,0,0,1-1.136,5.171L13.3,16.483a25.21,25.21,0,0,0,7.461,7.433l1.136-1.13a5.413,5.413,0,0,1,3.567-1.417,4.75,4.75,0,0,1,1.624.285,17.851,17.851,0,0,0,4.218.97,4.89,4.89,0,0,1,4.216,4.847v4.847a5.307,5.307,0,0,1-1.459,3.394A4.441,4.441,0,0,1,30.655,37.167ZM4.866,5.009a2.045,2.045,0,0,0-1.3.647,2.354,2.354,0,0,0-.325,1.132,30.525,30.525,0,0,0,4.7,13.25,29.413,29.413,0,0,0,9.245,9.211,30.778,30.778,0,0,0,13.3,4.686,1.589,1.589,0,0,0,1.3-.485,1.465,1.465,0,0,0,.486-1.132V27.471a1.751,1.751,0,0,0-1.3-1.615,27.209,27.209,0,0,1-4.866-1.293,1.525,1.525,0,0,0-.683-.168,1.553,1.553,0,0,0-1.1.492l-2.109,2.1a1.32,1.32,0,0,1-1.091.536,1.94,1.94,0,0,1-.856-.212A26.638,26.638,0,0,1,9.894,16.968a1.716,1.716,0,0,1,.323-1.939l2.109-1.94a2.232,2.232,0,0,0,.325-1.777,16.4,16.4,0,0,1-1.3-4.847A1.728,1.728,0,0,0,9.731,5.009Zm30.818,11.15H35.52A1.73,1.73,0,0,1,33.9,14.706a12.65,12.65,0,0,0-3.69-7.676,13.45,13.45,0,0,0-7.826-3.8,1.89,1.89,0,0,1-1.459-1.778C20.923.648,21.9,0,22.707,0a16.938,16.938,0,0,1,9.772,4.768,16.109,16.109,0,0,1,4.663,9.615,1.342,1.342,0,0,1-.228,1.03,1.859,1.859,0,0,1-1.231.747Zm-6.326,0h-.325a1.582,1.582,0,0,1-1.621-1.292,6.169,6.169,0,0,0-5.029-5.011,1.643,1.643,0,0,1,.35-3.256,1.836,1.836,0,0,1,.3.025,9.47,9.47,0,0,1,7.623,7.595,1.718,1.718,0,0,1-.272,1.287,1.526,1.526,0,0,1-1.025.652Z" fill="#e8551e"/>
    </clipPath>
  </defs>
  <g id="Group_81" data-name="Group 81" transform="translate(0 0)">
    <path id="icon_phone-call-2" data-name="icon / phone-call" d="M30.655,37.167h-.486A32.614,32.614,0,0,1,15.408,32,33.887,33.887,0,0,1,5.19,21.815,34.186,34.186,0,0,1,0,7.11,5.536,5.536,0,0,1,1.136,3.555,5.025,5.025,0,0,1,4.379,1.777H9.731a4.9,4.9,0,0,1,4.866,4.2,17.662,17.662,0,0,0,.974,4.2,5.065,5.065,0,0,1-1.136,5.171L13.3,16.483a25.21,25.21,0,0,0,7.461,7.433l1.136-1.13a5.413,5.413,0,0,1,3.567-1.417,4.75,4.75,0,0,1,1.624.285,17.851,17.851,0,0,0,4.218.97,4.89,4.89,0,0,1,4.216,4.847v4.847a5.307,5.307,0,0,1-1.459,3.394A4.441,4.441,0,0,1,30.655,37.167ZM4.866,5.009a2.045,2.045,0,0,0-1.3.647,2.354,2.354,0,0,0-.325,1.132,30.525,30.525,0,0,0,4.7,13.25,29.413,29.413,0,0,0,9.245,9.211,30.778,30.778,0,0,0,13.3,4.686,1.589,1.589,0,0,0,1.3-.485,1.465,1.465,0,0,0,.486-1.132V27.471a1.751,1.751,0,0,0-1.3-1.615,27.209,27.209,0,0,1-4.866-1.293,1.525,1.525,0,0,0-.683-.168,1.553,1.553,0,0,0-1.1.492l-2.109,2.1a1.32,1.32,0,0,1-1.091.536,1.94,1.94,0,0,1-.856-.212A26.638,26.638,0,0,1,9.894,16.968a1.716,1.716,0,0,1,.323-1.939l2.109-1.94a2.232,2.232,0,0,0,.325-1.777,16.4,16.4,0,0,1-1.3-4.847A1.728,1.728,0,0,0,9.731,5.009Zm30.818,11.15H35.52A1.73,1.73,0,0,1,33.9,14.706a12.65,12.65,0,0,0-3.69-7.676,13.45,13.45,0,0,0-7.826-3.8,1.89,1.89,0,0,1-1.459-1.778C20.923.648,21.9,0,22.707,0a16.938,16.938,0,0,1,9.772,4.768,16.109,16.109,0,0,1,4.663,9.615,1.342,1.342,0,0,1-.228,1.03,1.859,1.859,0,0,1-1.231.747Zm-6.326,0h-.325a1.582,1.582,0,0,1-1.621-1.292,6.169,6.169,0,0,0-5.029-5.011,1.643,1.643,0,0,1,.35-3.256,1.836,1.836,0,0,1,.3.025,9.47,9.47,0,0,1,7.623,7.595,1.718,1.718,0,0,1-.272,1.287,1.526,1.526,0,0,1-1.025.652Z" transform="translate(0 0)" fill="#e8551e"/>
  </g>
</svg>
