<svg id="icon_phone_phone-call" data-name="icon / phone / phone-call" xmlns="http://www.w3.org/2000/svg" xmlns:xlink="http://www.w3.org/1999/xlink" width="20.873" height="20.873" viewBox="0 0 20.873 20.873">
  <defs>
    <clipPath id="clip-path">
      <path id="icon_phone-call" data-name="icon / phone-call" d="M17.215,20.873h-.273a18.316,18.316,0,0,1-8.289-2.9,19.031,19.031,0,0,1-5.738-5.718A19.2,19.2,0,0,1,0,3.993,3.109,3.109,0,0,1,.638,2,2.822,2.822,0,0,1,2.459,1H5.465A2.749,2.749,0,0,1,8.2,3.358a9.919,9.919,0,0,0,.547,2.359,2.844,2.844,0,0,1-.638,2.9l-.638.636a14.158,14.158,0,0,0,4.19,4.174L12.3,12.8a3.04,3.04,0,0,1,2-.8,2.668,2.668,0,0,1,.912.16,10.025,10.025,0,0,0,2.369.545,2.746,2.746,0,0,1,2.368,2.722V18.15a2.981,2.981,0,0,1-.82,1.906A2.494,2.494,0,0,1,17.215,20.873ZM2.733,2.813A1.148,1.148,0,0,0,2,3.176a1.322,1.322,0,0,0-.182.636,17.142,17.142,0,0,0,2.642,7.441,16.518,16.518,0,0,0,5.192,5.173,17.284,17.284,0,0,0,7.47,2.632.892.892,0,0,0,.729-.272.823.823,0,0,0,.273-.636V15.427a.983.983,0,0,0-.729-.907,15.28,15.28,0,0,1-2.733-.726.856.856,0,0,0-.383-.094.872.872,0,0,0-.619.276l-1.184,1.18a.741.741,0,0,1-.613.3,1.089,1.089,0,0,1-.481-.119A14.96,14.96,0,0,1,5.557,9.529.964.964,0,0,1,5.738,8.44l1.184-1.09a1.254,1.254,0,0,0,.182-1A9.213,9.213,0,0,1,6.376,3.63a.971.971,0,0,0-.911-.817ZM20.039,9.075h-.092a.972.972,0,0,1-.911-.816,7.1,7.1,0,0,0-2.072-4.311A7.553,7.553,0,0,0,12.57,1.815a1.062,1.062,0,0,1-.82-1c0-.452.548-.816,1-.816A9.512,9.512,0,0,1,18.24,2.677a9.046,9.046,0,0,1,2.619,5.4.753.753,0,0,1-.128.578,1.044,1.044,0,0,1-.691.42Zm-3.553,0H16.3a.888.888,0,0,1-.91-.726A3.464,3.464,0,0,0,12.57,5.535a.923.923,0,0,1,.2-1.828,1.031,1.031,0,0,1,.168.014,5.318,5.318,0,0,1,4.281,4.265.965.965,0,0,1-.153.723.857.857,0,0,1-.576.366Z" fill="#fff"/>
    </clipPath>
  </defs>
  <g id="Group_81" data-name="Group 81" transform="translate(0 0)">
    <path id="icon_phone-call-2" data-name="icon / phone-call" d="M17.215,20.873h-.273a18.316,18.316,0,0,1-8.289-2.9,19.031,19.031,0,0,1-5.738-5.718A19.2,19.2,0,0,1,0,3.993,3.109,3.109,0,0,1,.638,2,2.822,2.822,0,0,1,2.459,1H5.465A2.749,2.749,0,0,1,8.2,3.358a9.919,9.919,0,0,0,.547,2.359,2.844,2.844,0,0,1-.638,2.9l-.638.636a14.158,14.158,0,0,0,4.19,4.174L12.3,12.8a3.04,3.04,0,0,1,2-.8,2.668,2.668,0,0,1,.912.16,10.025,10.025,0,0,0,2.369.545,2.746,2.746,0,0,1,2.368,2.722V18.15a2.981,2.981,0,0,1-.82,1.906A2.494,2.494,0,0,1,17.215,20.873ZM2.733,2.813A1.148,1.148,0,0,0,2,3.176a1.322,1.322,0,0,0-.182.636,17.142,17.142,0,0,0,2.642,7.441,16.518,16.518,0,0,0,5.192,5.173,17.284,17.284,0,0,0,7.47,2.632.892.892,0,0,0,.729-.272.823.823,0,0,0,.273-.636V15.427a.983.983,0,0,0-.729-.907,15.28,15.28,0,0,1-2.733-.726.856.856,0,0,0-.383-.094.872.872,0,0,0-.619.276l-1.184,1.18a.741.741,0,0,1-.613.3,1.089,1.089,0,0,1-.481-.119A14.96,14.96,0,0,1,5.557,9.529.964.964,0,0,1,5.738,8.44l1.184-1.09a1.254,1.254,0,0,0,.182-1A9.213,9.213,0,0,1,6.376,3.63a.971.971,0,0,0-.911-.817ZM20.039,9.075h-.092a.972.972,0,0,1-.911-.816,7.1,7.1,0,0,0-2.072-4.311A7.553,7.553,0,0,0,12.57,1.815a1.062,1.062,0,0,1-.82-1c0-.452.548-.816,1-.816A9.512,9.512,0,0,1,18.24,2.677a9.046,9.046,0,0,1,2.619,5.4.753.753,0,0,1-.128.578,1.044,1.044,0,0,1-.691.42Zm-3.553,0H16.3a.888.888,0,0,1-.91-.726A3.464,3.464,0,0,0,12.57,5.535a.923.923,0,0,1,.2-1.828,1.031,1.031,0,0,1,.168.014,5.318,5.318,0,0,1,4.281,4.265.965.965,0,0,1-.153.723.857.857,0,0,1-.576.366Z" transform="translate(0 0)" fill="#fff"/>
  </g>
</svg>
