<svg xmlns="http://www.w3.org/2000/svg" xmlns:xlink="http://www.w3.org/1999/xlink" width="36" height="36" viewBox="0 0 36 36">
  <defs>
    <clipPath id="clip-path">
      <path id="icon_phone-call" data-name="icon / phone-call" d="M29.692,36h-.471a31.59,31.59,0,0,1-14.3-5.008,32.823,32.823,0,0,1-9.9-9.862A33.112,33.112,0,0,1,0,6.886,5.362,5.362,0,0,1,1.1,3.444,4.867,4.867,0,0,1,4.242,1.721H9.426a4.742,4.742,0,0,1,4.713,4.07,17.107,17.107,0,0,0,.944,4.069,4.906,4.906,0,0,1-1.1,5.008l-1.1,1.1a24.418,24.418,0,0,0,7.227,7.2l1.1-1.095A5.243,5.243,0,0,1,24.663,20.7a4.6,4.6,0,0,1,1.573.276,17.29,17.29,0,0,0,4.085.94,4.737,4.737,0,0,1,4.084,4.7v4.7a5.141,5.141,0,0,1-1.413,3.287A4.3,4.3,0,0,1,29.692,36ZM4.713,4.852a1.981,1.981,0,0,0-1.257.626,2.281,2.281,0,0,0-.315,1.1A29.566,29.566,0,0,0,7.7,19.409a28.49,28.49,0,0,0,8.955,8.922,29.811,29.811,0,0,0,12.883,4.539,1.539,1.539,0,0,0,1.257-.47,1.419,1.419,0,0,0,.471-1.1v-4.7a1.7,1.7,0,0,0-1.257-1.565,26.355,26.355,0,0,1-4.713-1.253,1.477,1.477,0,0,0-.661-.163,1.5,1.5,0,0,0-1.067.476l-2.043,2.034a1.279,1.279,0,0,1-1.057.519,1.879,1.879,0,0,1-.829-.206A25.8,25.8,0,0,1,9.584,16.435,1.662,1.662,0,0,1,9.9,14.557l2.043-1.879a2.162,2.162,0,0,0,.315-1.721A15.889,15.889,0,0,1,11,6.261,1.674,1.674,0,0,0,9.426,4.852Zm29.85,10.8H34.4a1.676,1.676,0,0,1-1.571-1.408A12.253,12.253,0,0,0,29.26,6.809a13.028,13.028,0,0,0-7.58-3.678,1.831,1.831,0,0,1-1.413-1.723c0-.78.945-1.408,1.728-1.408a16.406,16.406,0,0,1,9.465,4.618,15.6,15.6,0,0,1,4.517,9.313,1.3,1.3,0,0,1-.221,1,1.8,1.8,0,0,1-1.192.724Zm-6.128,0h-.315a1.532,1.532,0,0,1-1.57-1.251A5.975,5.975,0,0,0,21.68,9.547a1.591,1.591,0,0,1,.339-3.153,1.778,1.778,0,0,1,.29.024,9.172,9.172,0,0,1,7.383,7.356,1.664,1.664,0,0,1-.264,1.246,1.478,1.478,0,0,1-.993.631Z" transform="translate(-0.176 0.3)" fill="#fff"/>
    </clipPath>
  </defs>
  <g id="icon_phone_phone-call" data-name="icon / phone / phone-call" transform="translate(0.176 -0.3)">
    <g id="Group_81" data-name="Group 81" transform="translate(0 0)">
      <path id="icon_phone-call-2" data-name="icon / phone-call" d="M29.692,36h-.471a31.59,31.59,0,0,1-14.3-5.008,32.823,32.823,0,0,1-9.9-9.862A33.112,33.112,0,0,1,0,6.886,5.362,5.362,0,0,1,1.1,3.444,4.867,4.867,0,0,1,4.242,1.721H9.426a4.742,4.742,0,0,1,4.713,4.07,17.107,17.107,0,0,0,.944,4.069,4.906,4.906,0,0,1-1.1,5.008l-1.1,1.1a24.418,24.418,0,0,0,7.227,7.2l1.1-1.095A5.243,5.243,0,0,1,24.663,20.7a4.6,4.6,0,0,1,1.573.276,17.29,17.29,0,0,0,4.085.94,4.737,4.737,0,0,1,4.084,4.7v4.7a5.141,5.141,0,0,1-1.413,3.287A4.3,4.3,0,0,1,29.692,36ZM4.713,4.852a1.981,1.981,0,0,0-1.257.626,2.281,2.281,0,0,0-.315,1.1A29.566,29.566,0,0,0,7.7,19.409a28.49,28.49,0,0,0,8.955,8.922,29.811,29.811,0,0,0,12.883,4.539,1.539,1.539,0,0,0,1.257-.47,1.419,1.419,0,0,0,.471-1.1v-4.7a1.7,1.7,0,0,0-1.257-1.565,26.355,26.355,0,0,1-4.713-1.253,1.477,1.477,0,0,0-.661-.163,1.5,1.5,0,0,0-1.067.476l-2.043,2.034a1.279,1.279,0,0,1-1.057.519,1.879,1.879,0,0,1-.829-.206A25.8,25.8,0,0,1,9.584,16.435,1.662,1.662,0,0,1,9.9,14.557l2.043-1.879a2.162,2.162,0,0,0,.315-1.721A15.889,15.889,0,0,1,11,6.261,1.674,1.674,0,0,0,9.426,4.852Zm29.85,10.8H34.4a1.676,1.676,0,0,1-1.571-1.408A12.253,12.253,0,0,0,29.26,6.809a13.028,13.028,0,0,0-7.58-3.678,1.831,1.831,0,0,1-1.413-1.723c0-.78.945-1.408,1.728-1.408a16.406,16.406,0,0,1,9.465,4.618,15.6,15.6,0,0,1,4.517,9.313,1.3,1.3,0,0,1-.221,1,1.8,1.8,0,0,1-1.192.724Zm-6.128,0h-.315a1.532,1.532,0,0,1-1.57-1.251A5.975,5.975,0,0,0,21.68,9.547a1.591,1.591,0,0,1,.339-3.153,1.778,1.778,0,0,1,.29.024,9.172,9.172,0,0,1,7.383,7.356,1.664,1.664,0,0,1-.264,1.246,1.478,1.478,0,0,1-.993.631Z" transform="translate(-0.176 0.3)" fill="#fff"/>
    </g>
  </g>
</svg>
