<svg xmlns="http://www.w3.org/2000/svg" width="29.941" height="26.2" viewBox="0 0 29.941 26.2">
  <g id="Group_1268" data-name="Group 1268" transform="translate(-776.5 -194)">
    <g id="Group_1094" data-name="Group 1094" transform="translate(806.441 194) rotate(90)">
      <g id="Group_1093" data-name="Group 1093" transform="translate(0 0)">
        <path id="Path_345" data-name="Path 345" d="M57.845,11.277,47.57,1.027a3.513,3.513,0,0,0-4.961,0L32.332,11.277a1.17,1.17,0,1,0,1.652,1.656L44.262,2.681a1.171,1.171,0,0,1,1.655,0L56.193,12.933a1.17,1.17,0,1,0,1.652-1.656Z" transform="translate(-31.989 0)"/>
      </g>
    </g>
    <g id="Group_1096" data-name="Group 1096" transform="translate(800.068 205.93) rotate(90)">
      <g id="Group_1095" data-name="Group 1095">
        <path id="Path_346" data-name="Path 346" d="M237.169,108.979a1.17,1.17,0,0,0-1.17,1.17v21.229a1.17,1.17,0,0,0,2.339,0V110.149A1.17,1.17,0,0,0,237.169,108.979Z" transform="translate(-235.999 -108.979)"/>
      </g>
    </g>
  </g>
</svg>
