<svg xmlns="http://www.w3.org/2000/svg" xmlns:xlink="http://www.w3.org/1999/xlink" width="20.431" height="20.433" viewBox="0 0 20.431 20.433">
  <defs>
    <clipPath id="clip-path">
      <path id="icon_slack" data-name="icon / slack" d="M8.431,20.433a6.28,6.28,0,0,1-4.656-1.789,13.114,13.114,0,0,1-2.93-5.622C-.242,9.548-.279,7.051.727,5.165S3.863,1.891,7.408.841A16.075,16.075,0,0,1,12.078,0a6.24,6.24,0,0,1,3.173.756c1.914,1,3.214,2.985,4.348,6.644,1.086,3.471,1.109,5.978.075,7.89-1.024,1.891-3.133,3.282-6.638,4.376A16.581,16.581,0,0,1,8.431,20.433ZM12.1,1.693A15.107,15.107,0,0,0,7.92,2.46c-3.1.93-4.843,2.012-5.645,3.509s-.736,3.5.19,6.542a11.9,11.9,0,0,0,2.31,4.726A4.629,4.629,0,0,0,8.4,18.709a14.811,14.811,0,0,0,4.12-.746c5.957-1.786,7.252-4.154,5.541-10.136-.939-3.071-2.05-4.858-3.5-5.622A5.582,5.582,0,0,0,12.1,1.693ZM9.71,16.174a.819.819,0,0,1-.767-.6l-.6-1.618-1.62.6a.314.314,0,0,1-.255.085.821.821,0,0,1-.768-.6.851.851,0,0,1,.512-1.107l1.62-.6L6.982,9.956l-1.62.6a.314.314,0,0,1-.255.085.821.821,0,0,1-.768-.6.851.851,0,0,1,.512-1.107l1.62-.6-.6-1.618a.789.789,0,0,1,.044-.662.694.694,0,0,1,.467-.36.754.754,0,0,1,.281-.054.913.913,0,0,1,.827.565l.511,1.7,2.387-.852L9.8,5.441a.851.851,0,0,1,.512-1.107,1,1,0,0,1,.314-.053.854.854,0,0,1,.794.564l.6,1.618,1.62-.6a1,1,0,0,1,.314-.053.862.862,0,0,1,.282,1.672l-1.619.6.852,2.385,1.62-.6a1.128,1.128,0,0,1,.4-.1c.208,0,.347.137.449.443a.851.851,0,0,1-.511,1.107l-1.62.6.6,1.618a.851.851,0,0,1-.512,1.107.314.314,0,0,1-.255.085.821.821,0,0,1-.768-.6l-.6-1.618-2.387.852.6,1.618a.85.85,0,0,1-.511,1.107A.315.315,0,0,1,9.71,16.174Zm1.279-7.581h0L8.6,9.445l.852,2.385,2.387-.852-.852-2.385Z" fill="#fff"/>
    </clipPath>
  </defs>
  <g id="icon_social_slack" data-name="icon / social / slack" transform="translate(0)">
    <g id="Group_48" data-name="Group 48" transform="translate(0 0)">
      <path id="icon_slack-2" data-name="icon / slack" d="M8.431,20.433a6.28,6.28,0,0,1-4.656-1.789,13.114,13.114,0,0,1-2.93-5.622C-.242,9.548-.279,7.051.727,5.165S3.863,1.891,7.408.841A16.075,16.075,0,0,1,12.078,0a6.24,6.24,0,0,1,3.173.756c1.914,1,3.214,2.985,4.348,6.644,1.086,3.471,1.109,5.978.075,7.89-1.024,1.891-3.133,3.282-6.638,4.376A16.581,16.581,0,0,1,8.431,20.433ZM12.1,1.693A15.107,15.107,0,0,0,7.92,2.46c-3.1.93-4.843,2.012-5.645,3.509s-.736,3.5.19,6.542a11.9,11.9,0,0,0,2.31,4.726A4.629,4.629,0,0,0,8.4,18.709a14.811,14.811,0,0,0,4.12-.746c5.957-1.786,7.252-4.154,5.541-10.136-.939-3.071-2.05-4.858-3.5-5.622A5.582,5.582,0,0,0,12.1,1.693ZM9.71,16.174a.819.819,0,0,1-.767-.6l-.6-1.618-1.62.6a.314.314,0,0,1-.255.085.821.821,0,0,1-.768-.6.851.851,0,0,1,.512-1.107l1.62-.6L6.982,9.956l-1.62.6a.314.314,0,0,1-.255.085.821.821,0,0,1-.768-.6.851.851,0,0,1,.512-1.107l1.62-.6-.6-1.618a.789.789,0,0,1,.044-.662.694.694,0,0,1,.467-.36.754.754,0,0,1,.281-.054.913.913,0,0,1,.827.565l.511,1.7,2.387-.852L9.8,5.441a.851.851,0,0,1,.512-1.107,1,1,0,0,1,.314-.053.854.854,0,0,1,.794.564l.6,1.618,1.62-.6a1,1,0,0,1,.314-.053.862.862,0,0,1,.282,1.672l-1.619.6.852,2.385,1.62-.6a1.128,1.128,0,0,1,.4-.1c.208,0,.347.137.449.443a.851.851,0,0,1-.511,1.107l-1.62.6.6,1.618a.851.851,0,0,1-.512,1.107.314.314,0,0,1-.255.085.821.821,0,0,1-.768-.6l-.6-1.618-2.387.852.6,1.618a.85.85,0,0,1-.511,1.107A.315.315,0,0,1,9.71,16.174Zm1.279-7.581h0L8.6,9.445l.852,2.385,2.387-.852-.852-2.385Z" transform="translate(0 0)" fill="#fff"/>
    </g>
  </g>
</svg>
