<svg id="icon_social_twitter" data-name="icon / social / twitter" xmlns="http://www.w3.org/2000/svg" xmlns:xlink="http://www.w3.org/1999/xlink" width="23.234" height="19.134" viewBox="0 0 23.234 19.134">
  <defs>
    <clipPath id="clip-path">
      <path id="icon_twitter" data-name="icon / twitter" d="M7.946,19.134a15.369,15.369,0,0,1-7.438-2.02.971.971,0,0,1-.484-1.058,1.046,1.046,0,0,1,.966-.674,11.163,11.163,0,0,0,4.734-.962,9.191,9.191,0,0,1-4.637-7.7,11.935,11.935,0,0,1,.966-5.2A.837.837,0,0,1,2.827.95a.935.935,0,0,1,.869.385A9.318,9.318,0,0,0,10.651,5.28a4.924,4.924,0,0,1,1.932-3.944A5.168,5.168,0,0,1,16.047,0a5.224,5.224,0,0,1,3.492,1.335A9.71,9.71,0,0,0,21.76.181a1.047,1.047,0,0,1,1.062,0,.91.91,0,0,1,.387.962A7.942,7.942,0,0,1,21.277,4.8V5.28c0,5.356-2.359,9.739-6.472,12.026A13.33,13.33,0,0,1,7.946,19.134ZM3.309,3.933a8.912,8.912,0,0,0,.1,4.774A8.071,8.071,0,0,0,8.14,13.553a.9.9,0,0,1,.1,1.636,11.371,11.371,0,0,1-3.477,1.636,13.54,13.54,0,0,0,3.169.384,11.8,11.8,0,0,0,5.911-1.539c3.5-2.033,5.506-5.821,5.506-10.391a1.224,1.224,0,0,0-.1-.578,1.334,1.334,0,0,1,.29-.865c.1-.145.2-.268.291-.387s.192-.24.288-.383a1.4,1.4,0,0,1-.339.1,1.4,1.4,0,0,0-.337.1.736.736,0,0,1-.233.036,1.063,1.063,0,0,1-.734-.325A3.37,3.37,0,0,0,15.94,1.844a3.218,3.218,0,0,0-2.2.838,3.434,3.434,0,0,0-1.159,2.6v.962a1.045,1.045,0,0,1-.966.963c-.113,0-.228.005-.341.005A11.363,11.363,0,0,1,3.309,3.933Z" transform="translate(0)" fill="#fff"/>
    </clipPath>
  </defs>
  <g id="Group_26" data-name="Group 26" transform="translate(0 0)">
    <path id="icon_twitter-2" data-name="icon / twitter" d="M7.946,19.134a15.369,15.369,0,0,1-7.438-2.02.971.971,0,0,1-.484-1.058,1.046,1.046,0,0,1,.966-.674,11.163,11.163,0,0,0,4.734-.962,9.191,9.191,0,0,1-4.637-7.7,11.935,11.935,0,0,1,.966-5.2A.837.837,0,0,1,2.827.95a.935.935,0,0,1,.869.385A9.318,9.318,0,0,0,10.651,5.28a4.924,4.924,0,0,1,1.932-3.944A5.168,5.168,0,0,1,16.047,0a5.224,5.224,0,0,1,3.492,1.335A9.71,9.71,0,0,0,21.76.181a1.047,1.047,0,0,1,1.062,0,.91.91,0,0,1,.387.962A7.942,7.942,0,0,1,21.277,4.8V5.28c0,5.356-2.359,9.739-6.472,12.026A13.33,13.33,0,0,1,7.946,19.134ZM3.309,3.933a8.912,8.912,0,0,0,.1,4.774A8.071,8.071,0,0,0,8.14,13.553a.9.9,0,0,1,.1,1.636,11.371,11.371,0,0,1-3.477,1.636,13.54,13.54,0,0,0,3.169.384,11.8,11.8,0,0,0,5.911-1.539c3.5-2.033,5.506-5.821,5.506-10.391a1.224,1.224,0,0,0-.1-.578,1.334,1.334,0,0,1,.29-.865c.1-.145.2-.268.291-.387s.192-.24.288-.383a1.4,1.4,0,0,1-.339.1,1.4,1.4,0,0,0-.337.1.736.736,0,0,1-.233.036,1.063,1.063,0,0,1-.734-.325A3.37,3.37,0,0,0,15.94,1.844a3.218,3.218,0,0,0-2.2.838,3.434,3.434,0,0,0-1.159,2.6v.962a1.045,1.045,0,0,1-.966.963c-.113,0-.228.005-.341.005A11.363,11.363,0,0,1,3.309,3.933Z" transform="translate(0 0)" fill="#fff"/>
  </g>
</svg>
