<svg id="icon_images_youtube" data-name="icon / images / youtube" xmlns="http://www.w3.org/2000/svg" xmlns:xlink="http://www.w3.org/1999/xlink" width="26.301" height="19.134" viewBox="0 0 26.301 19.134">
  <defs>
    <clipPath id="clip-path">
      <path id="icon_youtube" data-name="icon / youtube" d="M13.151,19.134c-.079,0-.225,0-.429,0-.358,0-.769-.006-1.123-.01-1.233-.016-2.382-.044-3.414-.083a25.939,25.939,0,0,1-4.748-.449A4.191,4.191,0,0,1,.521,15.625,32.938,32.938,0,0,1,0,9.595,32.733,32.733,0,0,1,.537,3.526,4.165,4.165,0,0,1,3.443.541,26,26,0,0,1,8.185.095C9.217.055,10.365.028,11.6.012c.354,0,.765-.009,1.123-.01.2,0,.35,0,.429,0h.429c.338,0,.716,0,1.122.01,1.263.015,2.411.041,3.411.076A27.921,27.921,0,0,1,22.873.5a4.15,4.15,0,0,1,2.891,2.98l.016.072A32.928,32.928,0,0,1,26.3,9.585a32.6,32.6,0,0,1-.537,6.023,4.165,4.165,0,0,1-2.906,2.984,26,26,0,0,1-4.742.447c-1.032.039-2.18.067-3.414.083-.354,0-.765.009-1.123.01C13.376,19.134,13.23,19.134,13.151,19.134Zm0-16.942h-.417c-.334,0-.706,0-1.108.01-1.242.016-2.371.044-3.357.082a26.734,26.734,0,0,0-4.244.369A1.931,1.931,0,0,0,2.678,3.987,30.832,30.832,0,0,0,2.192,9.6a31.175,31.175,0,0,0,.462,5.534,1.958,1.958,0,0,0,1.355,1.345,26.513,26.513,0,0,0,4.26.374c.986.038,2.116.066,3.357.082.4,0,.773.008,1.108.01h.834c.334,0,.706,0,1.108-.01,1.242-.016,2.371-.044,3.357-.082a26.734,26.734,0,0,0,4.244-.369,1.931,1.931,0,0,0,1.346-1.332,30.811,30.811,0,0,0,.486-5.566,30.781,30.781,0,0,0-.479-5.6,1.928,1.928,0,0,0-1.315-1.362,29.084,29.084,0,0,0-4.278-.343c-.993-.035-2.123-.06-3.36-.075-.4,0-.771-.008-1.109-.009h-.417ZM10.686,14.27a1.113,1.113,0,0,1-.763-.309,1.082,1.082,0,0,1-.334-.788V6.005a1.1,1.1,0,0,1,1.1-1.1,1.079,1.079,0,0,1,.54.145l6.3,3.583a1.1,1.1,0,0,1,0,1.905l-6.3,3.583A1.079,1.079,0,0,1,10.686,14.27Zm1.095-6.381v3.4l2.988-1.7-2.988-1.7Z" fill="#fff"/>
    </clipPath>
  </defs>
  <g id="Group_5" data-name="Group 5" transform="translate(0 0)">
    <path id="icon_youtube-2" data-name="icon / youtube" d="M13.151,19.134c-.079,0-.225,0-.429,0-.358,0-.769-.006-1.123-.01-1.233-.016-2.382-.044-3.414-.083a25.939,25.939,0,0,1-4.748-.449A4.191,4.191,0,0,1,.521,15.625,32.938,32.938,0,0,1,0,9.595,32.733,32.733,0,0,1,.537,3.526,4.165,4.165,0,0,1,3.443.541,26,26,0,0,1,8.185.095C9.217.055,10.365.028,11.6.012c.354,0,.765-.009,1.123-.01.2,0,.35,0,.429,0h.429c.338,0,.716,0,1.122.01,1.263.015,2.411.041,3.411.076A27.921,27.921,0,0,1,22.873.5a4.15,4.15,0,0,1,2.891,2.98l.016.072A32.928,32.928,0,0,1,26.3,9.585a32.6,32.6,0,0,1-.537,6.023,4.165,4.165,0,0,1-2.906,2.984,26,26,0,0,1-4.742.447c-1.032.039-2.18.067-3.414.083-.354,0-.765.009-1.123.01C13.376,19.134,13.23,19.134,13.151,19.134Zm0-16.942h-.417c-.334,0-.706,0-1.108.01-1.242.016-2.371.044-3.357.082a26.734,26.734,0,0,0-4.244.369A1.931,1.931,0,0,0,2.678,3.987,30.832,30.832,0,0,0,2.192,9.6a31.175,31.175,0,0,0,.462,5.534,1.958,1.958,0,0,0,1.355,1.345,26.513,26.513,0,0,0,4.26.374c.986.038,2.116.066,3.357.082.4,0,.773.008,1.108.01h.834c.334,0,.706,0,1.108-.01,1.242-.016,2.371-.044,3.357-.082a26.734,26.734,0,0,0,4.244-.369,1.931,1.931,0,0,0,1.346-1.332,30.811,30.811,0,0,0,.486-5.566,30.781,30.781,0,0,0-.479-5.6,1.928,1.928,0,0,0-1.315-1.362,29.084,29.084,0,0,0-4.278-.343c-.993-.035-2.123-.06-3.36-.075-.4,0-.771-.008-1.109-.009h-.417ZM10.686,14.27a1.113,1.113,0,0,1-.763-.309,1.082,1.082,0,0,1-.334-.788V6.005a1.1,1.1,0,0,1,1.1-1.1,1.079,1.079,0,0,1,.54.145l6.3,3.583a1.1,1.1,0,0,1,0,1.905l-6.3,3.583A1.079,1.079,0,0,1,10.686,14.27Zm1.095-6.381v3.4l2.988-1.7-2.988-1.7Z" transform="translate(0 0)" fill="#fff"/>
  </g>
</svg>
