<svg xmlns="http://www.w3.org/2000/svg" width="16.394" height="16.394" viewBox="0 0 16.394 16.394">
  <g id="bagagge" transform="translate(0)">
    <path id="Path_358" data-name="Path 358" d="M24.265,12.173l-1.708-1.366a.34.34,0,0,0-.213-.075H19.612V8.683A.684.684,0,0,0,18.929,8H13.465a.684.684,0,0,0-.683.683v2.049H10.049a.342.342,0,0,0-.213.075L8.128,12.173A.342.342,0,0,0,8,12.44v3.415a.342.342,0,0,0,.683,0V12.6l1.486-1.189h.563V22.345h-.563L8.683,21.156V17.9A.342.342,0,1,0,8,17.9V21.32a.342.342,0,0,0,.128.267l1.708,1.366a.342.342,0,0,0,.213.075h.683v1.025a.342.342,0,0,0,.342.342H12.44a.342.342,0,0,0,.342-.342V23.028h6.831v1.025a.342.342,0,0,0,.342.342H21.32a.342.342,0,0,0,.342-.342V23.028h.683a.34.34,0,0,0,.213-.075l1.708-1.366a.341.341,0,0,0,.128-.267V17.9a.342.342,0,1,0-.683,0v3.251l-1.486,1.189h-.563V11.415h.563L23.711,12.6v3.251a.342.342,0,0,0,.683,0V12.44A.341.341,0,0,0,24.265,12.173Zm-10.8-3.49h5.465v2.049H13.465ZM11.415,23.711v-12.3H12.1v11.27h0v1.024Zm1.366-1.366V11.415h6.831V22.345Zm8.2,1.366H20.3v-12.3h.683Z" transform="translate(-8 -8)" fill="#fff"/>
    <path id="Path_359" data-name="Path 359" d="M26.732,22a2.732,2.732,0,1,0,2.732,2.732A2.735,2.735,0,0,0,26.732,22Zm0,4.782a2.049,2.049,0,1,1,2.049-2.049A2.052,2.052,0,0,1,26.732,26.782Z" transform="translate(-18.535 -17.218)" fill="#fff"/>
    <path id="Path_360" data-name="Path 360" d="M29.123,40H24.342a.342.342,0,0,0-.342.342v1.366a.342.342,0,0,0,.342.342h4.781a.342.342,0,0,0,.342-.342V40.342A.341.341,0,0,0,29.123,40Zm-.342,1.366h-4.1v-.683h4.1Z" transform="translate(-18.535 -29.071)" fill="#fff"/>
    <ellipse id="Ellipse_31" data-name="Ellipse 31" cx="0.237" cy="0.237" rx="0.237" ry="0.237" transform="translate(15.67 8.991)" fill="#fff"/>
    <ellipse id="Ellipse_32" data-name="Ellipse 32" cx="0.237" cy="0.237" rx="0.237" ry="0.237" transform="translate(0.49 8.991)" fill="#fff"/>
  </g>
</svg>
