<svg xmlns="http://www.w3.org/2000/svg" width="57.022" height="57.014" viewBox="0 0 57.022 57.014">
  <g id="Group_1521" data-name="Group 1521" transform="translate(-1649.489 -2092.993)">
    <g id="Rectangle_662" data-name="Rectangle 662" transform="translate(1659 2106)" fill="#fff" stroke="#707070" stroke-width="1">
      <rect width="38" height="31" stroke="none"/>
      <rect x="0.5" y="0.5" width="37" height="30" fill="none"/>
    </g>
    <path id="Subtraction_10" data-name="Subtraction 10" d="M28.5,57a28.459,28.459,0,1,1,11.093-2.24A28.378,28.378,0,0,1,28.5,57Zm3.722-39.518a.994.994,0,0,0-.7,1.7l8.708,8.729a1,1,0,0,1,0,1.406L31.518,38.04a.994.994,0,1,0,1.407,1.4l8.7-8.727a2.983,2.983,0,0,0,0-4.214l-8.706-8.728a.992.992,0,0,0-.7-.292ZM15.383,27.614a1,1,0,1,0,0,1.988H35.956a1,1,0,1,0,0-1.988Z" transform="translate(1649.5 2093.007)" fill="#ff710f"/>
  </g>
</svg>
