<svg xmlns="http://www.w3.org/2000/svg" width="57" height="57" viewBox="0 0 57 57">
  <path id="Subtraction_10" data-name="Subtraction 10" d="M28.5,57a28.378,28.378,0,0,1-15.935-4.867A28.574,28.574,0,0,1,2.24,39.593,28.463,28.463,0,0,1,4.867,12.565a28.638,28.638,0,0,1,7.7-7.7,28.463,28.463,0,0,1,31.87,0A28.577,28.577,0,0,1,54.76,17.406a28.468,28.468,0,0,1-2.627,27.029A28.568,28.568,0,0,1,39.593,54.76,28.328,28.328,0,0,1,28.5,57Zm3.722-39.518a.994.994,0,0,0-.7,1.7l8.708,8.729a1,1,0,0,1,0,1.406L31.518,38.04a.994.994,0,1,0,1.407,1.4l8.705-8.727a2.983,2.983,0,0,0,0-4.214l-8.706-8.728a.992.992,0,0,0-.7-.292ZM15.383,27.614a1,1,0,1,0,0,1.988H35.956a1,1,0,1,0,0-1.988Z" fill="#ff710f"/>
</svg>
