<svg xmlns="http://www.w3.org/2000/svg" width="12.971" height="16.394" viewBox="0 0 12.971 16.394">
  <g id="expand" transform="translate(0 0)">
    <g id="Group_1160" data-name="Group 1160" transform="translate(0 0)">
      <g id="Group_1159" data-name="Group 1159">
        <path id="Path_355" data-name="Path 355" d="M234.767,89.893a.24.24,0,0,0-.336.046.3.3,0,0,1-.482,0,.24.24,0,0,0-.383.289.782.782,0,0,0,1.247,0A.24.24,0,0,0,234.767,89.893Z" transform="translate(-227.752 -86.966)" fill="#fff"/>
        <path id="Path_356" data-name="Path 356" d="M66.142,10.211A.345.345,0,0,0,65.555,10l-.394.394L63.205,8.439V7.964l1.955-1.955.394.394a.345.345,0,0,0,.587-.211l.281-2.956a.345.345,0,0,0-.376-.376l-2.956.281a.345.345,0,0,0-.211.587l.394.394L62.025,5.37a3.278,3.278,0,0,0-1.146-.617.083.083,0,0,1-.057-.079v-.2a2.334,2.334,0,1,0-1.766.039v.16A.083.083,0,0,1,59,4.753a3.278,3.278,0,0,0-1.146.617L56.6,4.122,57,3.727a.345.345,0,0,0-.211-.587l-.968-.093a.24.24,0,0,0-.046.478l.682.066-.287.287a.345.345,0,0,0,0,.487L57.506,5.7q-.092.1-.175.212a3.233,3.233,0,0,0-.612,1.416L54.96,5.573a.345.345,0,0,0-.487,0l-.287.287-.238-2.507.705.067a.24.24,0,0,0,.045-.478l-.868-.082a.345.345,0,0,0-.376.376l.281,2.956a.345.345,0,0,0,.587.211l.394-.394,1.955,1.955v.476l-1.955,1.955L54.322,10a.345.345,0,0,0-.587.211l-.281,2.956a.345.345,0,0,0,.343.377l.033,0,2.956-.281A.345.345,0,0,0,57,12.676l-.394-.394,1.069-1.069a.91.91,0,0,0,.355-.108v4.218A1.076,1.076,0,0,0,59.939,16a1.076,1.076,0,0,0,1.911-.673V12.809a.24.24,0,0,0-.48,0v2.514a.6.6,0,0,1-1.191,0V10.807a.24.24,0,0,0-.24-.24h0a.24.24,0,0,0-.24.24v4.515a.6.6,0,0,1-1.191,0v-7.8a.24.24,0,1,0-.48,0l0,2.776a.436.436,0,1,1-.873,0V7.882A2.762,2.762,0,0,1,57.714,6.2a2.809,2.809,0,0,1,1.423-.991.565.565,0,0,0,.4-.539V4.642a2.338,2.338,0,0,0,.806-.017v.049a.565.565,0,0,0,.4.539,2.809,2.809,0,0,1,1.423.991,2.762,2.762,0,0,1,.562,1.678V10.3a.436.436,0,1,1-.873,0c0-.012,0-2.734,0-2.734a.24.24,0,1,0-.48,0v4.122a.24.24,0,1,0,.48,0V11.1a.909.909,0,0,0,.355.108l1.069,1.069-.394.394a.345.345,0,0,0,.211.587l2.956.281.033,0a.345.345,0,0,0,.343-.377Zm-9.973,1.826a.345.345,0,0,0,0,.487l.287.287-2.507.238.238-2.507.287.287a.345.345,0,0,0,.487,0l1.712-1.712V10.3a.916.916,0,0,0,.447.786Zm3.723-7.848a1.855,1.855,0,1,1,1.855-1.855A1.857,1.857,0,0,1,59.891,4.189Zm2.656,1.726c-.055-.073-.114-.144-.175-.212l1.338-1.338a.345.345,0,0,0,0-.487l-.287-.287,2.507-.238L65.691,5.86,65.4,5.573a.345.345,0,0,0-.487,0L63.159,7.331A3.233,3.233,0,0,0,62.547,5.915Zm.875,6.9.287-.287a.345.345,0,0,0,0-.487l-.951-.951a.916.916,0,0,0,.447-.786V9.118l1.712,1.712a.345.345,0,0,0,.487,0l.287-.287.238,2.507Z" transform="translate(-53.453 0)" fill="#fff"/>
      </g>
    </g>
  </g>
</svg>
