<svg xmlns="http://www.w3.org/2000/svg" width="11.527" height="16.394" viewBox="0 0 11.527 16.394">
  <g id="oil-bottle" transform="translate(0 0)">
    <path id="Path_364" data-name="Path 364" d="M219.588,120.451a1.441,1.441,0,1,0-2.1,1.975l2.206,2.344a1.441,1.441,0,0,0,2.1-1.975Zm1.486,3.681a.48.48,0,0,1-.679-.02l-2.206-2.344a.48.48,0,0,1,.7-.659l2.206,2.344a.48.48,0,0,1-.02.679Z" transform="translate(-212.58 -116.155)" fill="#fff"/>
    <path id="Path_365" data-name="Path 365" d="M87.4,6.155,83.554,2.072a.48.48,0,0,0-.35-.151H81.763V.48a.48.48,0,0,0-.48-.48H78.4a.48.48,0,0,0-.48.48V2.219l-1.8,2.025A.48.48,0,0,0,76,4.563v8.469a1.435,1.435,0,0,0,.368.96,1.44,1.44,0,0,0,1.073,2.4h8.645a1.44,1.44,0,0,0,1.073-2.4,1.435,1.435,0,0,0,.368-.961V6.484A.48.48,0,0,0,87.4,6.155ZM78.882.961H80.8v.961H78.882Zm7.2,14.473H77.441a.48.48,0,1,1,0-.961.48.48,0,1,0,0-.961.48.48,0,1,1,0-.961.48.48,0,1,0,0-.961,1.434,1.434,0,0,0-.48.083V4.745l1.657-1.864H83l3.57,3.793v5a1.434,1.434,0,0,0-.48-.083.48.48,0,1,0,0,.961.48.48,0,0,1,0,.961.48.48,0,1,0,0,.961.48.48,0,0,1,0,.961Z" transform="translate(-76 0)" fill="#fff"/>
    <path id="Path_366" data-name="Path 366" d="M212.836,302.207a.48.48,0,0,0-.79,0c-.01.015-.254.368-.5.794a2.942,2.942,0,0,0-.545,1.4,1.441,1.441,0,0,0,2.882,0,2.942,2.942,0,0,0-.545-1.4C213.09,302.575,212.846,302.222,212.836,302.207Zm-.4,2.674a.481.481,0,0,1-.48-.48,3.588,3.588,0,0,1,.48-1.032,3.587,3.587,0,0,1,.48,1.031A.481.481,0,0,1,212.441,304.882Z" transform="translate(-206.677 -292.33)" fill="#fff"/>
  </g>
</svg>
