<svg xmlns="http://www.w3.org/2000/svg" width="11.294" height="16.393" viewBox="0 0 11.294 16.393">
  <g id="shifter" transform="translate(0)">
    <g id="Group_1162" data-name="Group 1162" transform="translate(8.261 14.075)">
      <g id="Group_1161" data-name="Group 1161">
        <path id="Path_362" data-name="Path 362" d="M338.274,439.853a.329.329,0,0,0-.018-.06.321.321,0,0,0-.029-.055.306.306,0,0,0-.04-.049.333.333,0,0,0-.049-.04.34.34,0,0,0-.055-.029.324.324,0,0,0-.06-.018.318.318,0,0,0-.125,0,.325.325,0,0,0-.06.018.342.342,0,0,0-.055.029.338.338,0,0,0-.049.04.3.3,0,0,0-.04.049.313.313,0,0,0-.029.055.324.324,0,0,0-.018.06.314.314,0,0,0-.006.062.319.319,0,0,0,.006.063.338.338,0,0,0,.018.06.32.32,0,0,0,.029.055.3.3,0,0,0,.04.049.322.322,0,0,0,.1.069.32.32,0,0,0,.06.019.326.326,0,0,0,.125,0,.32.32,0,0,0,.06-.019.347.347,0,0,0,.055-.029.339.339,0,0,0,.049-.04.308.308,0,0,0,.04-.049.329.329,0,0,0,.029-.055.343.343,0,0,0,.018-.06.319.319,0,0,0,.006-.063A.314.314,0,0,0,338.274,439.853Z" transform="translate(-337.64 -439.595)" fill="#fff"/>
      </g>
    </g>
    <g id="Group_1164" data-name="Group 1164" transform="translate(0 0)">
      <g id="Group_1163" data-name="Group 1163">
        <path id="Path_363" data-name="Path 363" d="M89.648,14.077v-.331A1.35,1.35,0,0,0,88.367,12.4v-.331a1.35,1.35,0,0,0-1.348-1.348h-.606V5.828h0a.32.32,0,0,0,.32-.32V4.389a1.6,1.6,0,0,0,.854-1.411V1.593A1.6,1.6,0,0,0,85.994,0H84.57a1.6,1.6,0,0,0-1.593,1.593V2.978a1.6,1.6,0,0,0,.854,1.411V5.507a.32.32,0,0,0,.32.32h0v4.891h-.606A1.35,1.35,0,0,0,82.2,12.067V12.4a1.35,1.35,0,0,0-1.281,1.347v.331a1.35,1.35,0,0,0-1.281,1.347v.65a.32.32,0,0,0,.32.32H90.609a.32.32,0,0,0,.32-.32v-.65A1.35,1.35,0,0,0,89.648,14.077Zm-6.031-11.1V1.593A.954.954,0,0,1,84.57.64h1.425a.954.954,0,0,1,.952.952V2.978a.953.953,0,0,1-.639.9.32.32,0,0,0-.215.3V5.187H84.471V4.5H85.2a.32.32,0,0,0,0-.64h-.993A.954.954,0,0,1,83.617,2.978Zm1.174,6.4V5.828h.982V9.381Zm.982.64v.7h-.982v-.7Zm-2.936,2.045a.709.709,0,0,1,.708-.708h3.474a.709.709,0,0,1,.708.708v.33h-4.89Zm7.451,3.686H80.275v-.33a.709.709,0,0,1,.708-.708h6.08a.32.32,0,1,0,0-.64H81.556v-.33a.709.709,0,0,1,.708-.708H88.3a.709.709,0,0,1,.708.708v.65a.32.32,0,0,0,.32.32h.253a.709.709,0,0,1,.708.708Z" transform="translate(-79.635)" fill="#fff"/>
      </g>
    </g>
  </g>
</svg>
